<svg width="65" height="61" viewBox="0 0 65 61" fill="none" xmlns="http://www.w3.org/2000/svg">
<path d="M16.25 19.825C16.25 19.4206 16.4212 19.0327 16.726 18.7467C17.0307 18.4607 17.444 18.3 17.875 18.3C18.306 18.3 18.7193 18.4607 19.024 18.7467C19.3288 19.0327 19.5 19.4206 19.5 19.825V41.175C19.5 41.5795 19.3288 41.9674 19.024 42.2534C18.7193 42.5394 18.306 42.7 17.875 42.7C17.444 42.7 17.0307 42.5394 16.726 42.2534C16.4212 41.9674 16.25 41.5795 16.25 41.175V19.825ZM13 9.15002C11.2761 9.15002 9.62279 9.7927 8.40381 10.9367C7.18482 12.0806 6.5 13.6322 6.5 15.25V45.75C6.5 47.3678 7.18482 48.9194 8.40381 50.0634C9.62279 51.2073 11.2761 51.85 13 51.85H22.75C24.4739 51.85 26.1272 51.2073 27.3462 50.0634C28.5652 48.9194 29.25 47.3678 29.25 45.75V15.25C29.25 13.6322 28.5652 12.0806 27.3462 10.9367C26.1272 9.7927 24.4739 9.15002 22.75 9.15002H13ZM9.75 15.25C9.75 14.4411 10.0924 13.6653 10.7019 13.0933C11.3114 12.5214 12.138 12.2 13 12.2H22.75C23.612 12.2 24.4386 12.5214 25.0481 13.0933C25.6576 13.6653 26 14.4411 26 15.25V45.75C26 46.5589 25.6576 47.3347 25.0481 47.9067C24.4386 48.4787 23.612 48.8 22.75 48.8H13C12.138 48.8 11.3114 48.4787 10.7019 47.9067C10.0924 47.3347 9.75 46.5589 9.75 45.75V15.25ZM43.875 18.3C43.444 18.3 43.0307 18.4607 42.726 18.7467C42.4212 19.0327 42.25 19.4206 42.25 19.825C42.25 20.2295 42.4212 20.6174 42.726 20.9034C43.0307 21.1894 43.444 21.35 43.875 21.35H48.75V28.975H43.875C43.444 28.975 43.0307 29.1357 42.726 29.4217C42.4212 29.7077 42.25 30.0956 42.25 30.5V41.175C42.25 41.5795 42.4212 41.9674 42.726 42.2534C43.0307 42.5394 43.444 42.7 43.875 42.7H50.375C50.806 42.7 51.2193 42.5394 51.524 42.2534C51.8288 41.9674 52 41.5795 52 41.175C52 40.7706 51.8288 40.3827 51.524 40.0967C51.2193 39.8107 50.806 39.65 50.375 39.65H45.5V32.025H50.375C50.806 32.025 51.2193 31.8644 51.524 31.5784C51.8288 31.2924 52 30.9045 52 30.5V19.825C52 19.4206 51.8288 19.0327 51.524 18.7467C51.2193 18.4607 50.806 18.3 50.375 18.3H43.875ZM42.25 9.15002C40.5261 9.15002 38.8728 9.7927 37.6538 10.9367C36.4348 12.0806 35.75 13.6322 35.75 15.25V45.75C35.75 47.3678 36.4348 48.9194 37.6538 50.0634C38.8728 51.2073 40.5261 51.85 42.25 51.85H52C53.7239 51.85 55.3772 51.2073 56.5962 50.0634C57.8152 48.9194 58.5 47.3678 58.5 45.75V15.25C58.5 13.6322 57.8152 12.0806 56.5962 10.9367C55.3772 9.7927 53.7239 9.15002 52 9.15002H42.25ZM39 15.25C39 14.4411 39.3424 13.6653 39.9519 13.0933C40.5614 12.5214 41.388 12.2 42.25 12.2H52C52.862 12.2 53.6886 12.5214 54.2981 13.0933C54.9076 13.6653 55.25 14.4411 55.25 15.25V45.75C55.25 46.5589 54.9076 47.3347 54.2981 47.9067C53.6886 48.4787 52.862 48.8 52 48.8H42.25C41.388 48.8 40.5614 48.4787 39.9519 47.9067C39.3424 47.3347 39 46.5589 39 45.75V15.25Z" fill="#FAA237"/>
</svg>
