<svg width="65" height="61" viewBox="0 0 65 61" fill="none" xmlns="http://www.w3.org/2000/svg">
<path d="M32.5 30.5C38.4855 30.5 43.3334 25.9504 43.3334 20.3333C43.3334 14.7162 38.4855 10.1666 32.5 10.1666C26.5146 10.1666 21.6667 14.7162 21.6667 20.3333C21.6667 25.9504 26.5146 30.5 32.5 30.5ZM32.5 15.25C35.4792 15.25 37.9167 17.5375 37.9167 20.3333C37.9167 23.1291 35.4792 25.4166 32.5 25.4166C29.5209 25.4166 27.0834 23.1291 27.0834 20.3333C27.0834 17.5375 29.5209 15.25 32.5 15.25ZM32.5 33.0416C25.2688 33.0416 10.8334 36.4475 10.8334 43.2083V48.2916C10.8334 49.6895 12.0521 50.8333 13.5417 50.8333H51.4584C52.948 50.8333 54.1667 49.6895 54.1667 48.2916V43.2083C54.1667 36.4475 39.7313 33.0416 32.5 33.0416ZM48.75 45.75H16.25V43.2337C16.7917 41.4037 25.1875 38.125 32.5 38.125C39.8125 38.125 48.2084 41.4037 48.75 43.2083V45.75Z" fill="#FAA237"/>
</svg>
