<svg width="65" height="61" viewBox="0 0 65 61" fill="none" xmlns="http://www.w3.org/2000/svg">
<path d="M46.0417 43.2083H31.1458L36.5625 38.125H46.0417M18.9583 43.2083V36.8542L40.3542 17.0292C40.8958 16.5208 41.7083 16.5208 42.25 17.0292L47.125 21.6042C47.6667 22.1125 47.6667 22.875 47.125 23.3833L25.7292 43.2083M51.4583 12.7083V48.2917H13.5417V12.7083H51.4583ZM51.4583 7.625H13.5417C10.5625 7.625 8.125 9.9125 8.125 12.7083V48.2917C8.125 51.0875 10.5625 53.375 13.5417 53.375H51.4583C54.4375 53.375 56.875 51.0875 56.875 48.2917V12.7083C56.875 9.9125 54.4375 7.625 51.4583 7.625Z" fill="#FAA237"/>
</svg>
