<svg width="65" height="61" viewBox="0 0 65 61" fill="none" xmlns="http://www.w3.org/2000/svg">
<path d="M32.5 43.2083C31.0635 43.2083 29.6857 42.6728 28.6699 41.7194C27.6541 40.7661 27.0834 39.4732 27.0834 38.125C27.0834 35.3037 29.4938 33.0417 32.5 33.0417C33.9366 33.0417 35.3144 33.5772 36.3302 34.5305C37.346 35.4838 37.9167 36.7768 37.9167 38.125C37.9167 39.4732 37.346 40.7661 36.3302 41.7194C35.3144 42.6728 33.9366 43.2083 32.5 43.2083ZM48.75 50.8333V25.4167H16.25V50.8333H48.75ZM48.75 20.3333C50.1866 20.3333 51.5644 20.8689 52.5802 21.8222C53.596 22.7755 54.1667 24.0685 54.1667 25.4167V50.8333C54.1667 52.1815 53.596 53.4745 52.5802 54.4278C51.5644 55.3811 50.1866 55.9167 48.75 55.9167H16.25C14.8135 55.9167 13.4357 55.3811 12.4199 54.4278C11.4041 53.4745 10.8334 52.1815 10.8334 50.8333V25.4167C10.8334 22.5954 13.2438 20.3333 16.25 20.3333H18.9584V15.25C18.9584 11.8795 20.3851 8.64712 22.9246 6.26384C25.4642 3.88057 28.9086 2.54166 32.5 2.54166C34.2784 2.54166 36.0393 2.87037 37.6822 3.50902C39.3252 4.14767 40.818 5.08376 42.0754 6.26384C43.3329 7.44392 44.3304 8.84487 45.0109 10.3867C45.6914 11.9286 46.0417 13.5811 46.0417 15.25V20.3333H48.75ZM32.5 7.62499C30.3452 7.62499 28.2785 8.42834 26.7548 9.8583C25.2311 11.2883 24.375 13.2277 24.375 15.25V20.3333H40.625V15.25C40.625 13.2277 39.769 11.2883 38.2453 9.8583C36.7216 8.42834 34.6549 7.62499 32.5 7.62499Z" fill="#FAA237"/>
</svg>
