<svg width="262" height="262" viewBox="0 0 262 262" fill="none" xmlns="http://www.w3.org/2000/svg">
<path d="M130.345 32.75C118.871 32.9023 107.921 37.5724 99.8684 45.7472C91.8162 53.9221 87.312 64.9421 87.3332 76.4167C86.6782 94.32 85.259 114.298 76.744 126.524C106.001 144.318 131 141.917 131 141.917C131 141.917 155.999 144.318 185.256 126.524C175.977 111.568 174.012 93.2283 174.667 76.4167C174.667 52.2908 155.126 32.75 131 32.75H130.345ZM96.7215 145.41C65.4998 152.069 43.6665 167.571 43.6665 185.583V229.25H131L98.2498 185.583H70.9582M131 229.25L150.432 150.759C150.432 150.759 141.917 152.833 131 152.833C120.083 152.833 111.568 150.759 111.568 150.759M131 229.25H218.333V185.583C218.333 167.571 196.5 152.069 165.278 145.41L191.042 185.583H163.75L131 229.25Z" fill="#82807E"/>
</svg>
